<svg xmlns="http://www.w3.org/2000/svg" viewBox="-10.5 -10.5 21 21" width="840" height="840">
  <!--
    Bezier source-of-truth for shared/domain/biomeMap.js.
    Convention: svgX = mapX, svgY = -mapY (map north = svg up).
    Path `d` attributes copied verbatim into biomeMap.js, sampled at module load
    into flat polygon vertices, tested via point-in-polygon for getBiomeForCoords.
    Layer order = biome priority (later = higher precedence in lookup).
  -->

  <rect x="-10.5" y="-10.5" width="21" height="21" fill="#d4b04a"/>

  <path d="M -10.5 -10.5 L 10.5 -10.5 L 10.5 -9.0
           C 8.5 -8.4, 6.5 -9.6, 4.5 -8.8
           C 2.5 -8.2, 0.5 -9.5, -1.5 -8.9
           C -3.5 -8.4, -5.5 -9.6, -7.5 -8.7
           L -10.5 -9.2 Z"
        fill="#8a6c3f"/>

  <path d="M -10.5 9.2
           C -8 9.7, -6 8.5, -4 9.3
           C -2 9.8, 0 8.7, 2 9.2
           C 4 9.6, 6 8.5, 8 9.3
           L 10.5 9.0 L 10.5 10.5 L -10.5 10.5 Z"
        fill="#8a6c3f"/>

  <path d="M -10.5 -10.5 L -8 -10.5
           C -7.6 -9, -7.2 -7.5, -7.4 -5.5
           C -7.6 -3.5, -6.7 -1.5, -7.0 0.5
           C -7.3 2, -7.0 3.0, -6.0 3.3
           C -4.5 3.2, -3.0 3.8, -2.3 5.0
           C -2.0 5.6, -2.6 6.2, -3.6 6.4
           C -5.2 6.5, -6.4 5.6, -6.9 5.2
           C -7.2 5.4, -7.4 6.2, -7.5 7.2
           C -7.8 8.6, -8.0 9.6, -8.2 10.5
           L -10.5 10.5 Z"
        fill="#5b6470"/>

  <path d="M -7.3 -3.0
           C -7.1 -2.0, -7.1 0.0, -7.1 2.0
           C -6.6 2.4, -5.6 2.2, -4.6 1.6
           C -3.6 1.0, -3.0 -0.2, -3.0 -1.0
           C -3.2 -1.4, -3.5 -1.5, -3.7 -1.5
           C -4.2 -1.7, -5.2 -2.1, -6.0 -2.6
           C -6.6 -2.9, -7.1 -3.1, -7.3 -3.0 Z"
        fill="#b8a87a"/>

  <path d="M -3.6 -1.4
           C -3.0 -2.6, -3.4 -4.0, -3.0 -5.2
           C -2.4 -6.4, -1.0 -7.2, 0.6 -7.6
           C 2.4 -8.0, 4.4 -7.9, 5.8 -7.4
           C 7.4 -6.8, 9.0 -6.0, 9.8 -4.6
           C 10.5 -2.8, 10.5 -0.6, 10.5 1.4
           C 10.5 3.5, 10.5 5.5, 10.0 7.5
           C 9.0 8.2, 7.0 8.2, 5.5 7.6
           C 4.0 7.0, 3.0 5.5, 2.8 4.0
           C 2.6 2.5, 2.5 1.0, 2.5 -0.2
           C 2.5 -0.8, 2.0 -1.2, 1.0 -1.3
           C -0.5 -1.5, -2.0 -1.4, -3.6 -1.4 Z"
        fill="#2d5a3d"/>

  <ellipse cx="0.5" cy="-4.2" rx="1.4" ry="1.1" fill="#8a6c3f"/>

  <path d="M 2.7 1.6
           C 3.5 1.3, 4.5 1.4, 5.5 1.6
           C 7.0 1.9, 8.5 2.0, 9.5 2.2
           C 10.0 2.4, 10.5 2.6, 10.5 3.0
           L 10.5 8.0
           C 9.5 8.4, 7.5 8.4, 6.0 8.0
           C 4.5 7.5, 3.0 6.5, 2.7 5.0
           C 2.5 3.5, 2.5 2.5, 2.7 1.6 Z"
        fill="#4a5d2c"/>
</svg>
